#!OML:ASF E:\motion texture\Top Level 1\Subject 1\Session 1\male.ASF
:FULLY-SPECIFIED
:DEGREES
563
root -8.54982 18.1764 7.34705 17.8101 -65.8363 -12.2127
lowerback 0.800594 6.84192 1.06602
upperback -3.90234 9.0431 -2.98629
thorax -3.82925 4.41399 -3.99548
lowerneck -6.33273 -15.8779 -17.9683
upperneck 2.05009 -20.9571 17.0066
head 5.3507 -10.0878 6.07511
rclavicle 4.11484e-014 3.33958e-014
rhumerus -19.7257 41.3296 -78.7799
rradius 47.4893
rwrist 12.5408
rhand -12.0425 -15.2488
rfingers 7.12502
rthumb 14.0161 -44.7562
lclavicle 4.11484e-014 3.33958e-014
lhumerus -51.8517 21.2558 57.1017
lradius 33.5556
lwrist -23.5912
lhand -9.07776 17.903
lfingers 7.12502
lthumb 16.8716 47.1901
rfemur -21.7671 -15.4047 21.1246
rtibia 52.9249
rfoot -2.60729 -19.5414
rtoes 9.74204
lfemur -13.5424 -10.2958 -14.5778
ltibia 20.699
lfoot -9.58887 -3.70539
ltoes -2.61677
564
root -8.66048 18.1759 7.36359 17.4654 -65.9733 -11.8263
lowerback 0.862678 6.63271 0.892439
upperback -3.84557 8.76426 -2.8299
thorax -3.87437 4.28206 -3.74142
lowerneck -6.3966 -15.8252 -17.8479
upperneck 1.97529 -20.8745 16.9931
head 5.31041 -10.0452 6.06731
rclavicle 1.28713e-014 6.36111e-015
rhumerus -21.6575 39.246 -80.6356
rradius 45.503
rwrist 11.6209
rhand -11.9941 -15.3702
rfingers 7.12502
rthumb 14.0627 -44.8745
lclavicle 1.28713e-014 6.36111e-015
lhumerus -52.0618 21.4782 56.9434
lradius 33.1443
lwrist -23.8269
lhand -8.90148 17.7724
lfingers 7.12502
lthumb 17.0413 47.0449
rfemur -22.3611 -15.2345 20.6296
rtibia 52.1332
rfoot -3.12372 -19.9548
rtoes 10.1196
lfemur -13.0512 -10.257 -14.7852
ltibia 20.587
lfoot -9.84703 -3.58149
ltoes -2.8985
565
root -8.77086 18.175 7.37906 17.1209 -66.1144 -11.4344
lowerback 0.941721 6.41558 0.732512
upperback -3.80162 8.47461 -2.68266
thorax -3.9367 4.14382 -3.50565
lowerneck -6.46457 -15.7601 -17.7077
upperneck 1.92284 -20.7781 16.9695
head 5.27223 -9.99581 6.05535
rclavicle -3.07371e-014 -3.65764e-014
rhumerus -23.3155 36.8646 -82.158
rradius 43.4758
rwrist 10.5465
rhand -11.964 -15.6477
rfingers 7.12502
rthumb 14.0917 -45.1499
lclavicle -3.07371e-014 -3.65764e-014
lhumerus -52.2674 21.6867 56.7624
lradius 32.7373
lwrist -24.0601
lhand -8.73693 17.6488
lfingers 7.12502
lthumb 17.1997 46.9076
rfemur -22.9332 -15.0474 20.1376
rtibia 51.2416
rfoot -3.5726 -20.3096
rtoes 10.436
lfemur -12.565 -10.2132 -14.988
ltibia 20.4667
lfoot -10.0928 -3.46078
ltoes -3.18642
566
root -8.88093 18.1736 7.39337 16.775 -66.2574 -11.0341
lowerback 1.01498 6.19281 0.579343
upperback -3.75479 8.17755 -2.53737
thorax -3.98901 4.00207 -3.27278
lowerneck -6.53898 -15.6864 -17.5595
upperneck 1.87653 -20.6701 16.9429
head 5.23404 -9.94042 6.04268
rclavicle -1.268e-013 -1.90833e-014
rhumerus -24.688 34.1941 -83.3059
rradius 41.4338
rwrist 9.31056
rhand -11.9689 -16.1035
rfingers 7.12502
rthumb 14.087 -45.6061
lclavicle -1.268e-013 -1.90833e-014
lhumerus -52.4479 21.9047 56.5751
lradius 32.3296
lwrist -24.3045
lhand -8.58552 17.5344
lfingers 7.12502
lthumb 17.3454 46.7804
rfemur -23.4842 -14.8452 19.6487
rtibia 50.257
rfoot -3.95969 -20.6112
rtoes 10.6666
lfemur -12.0867 -10.1653 -15.1866
ltibia 20.34
lfoot -10.3267 -3.34512
ltoes -3.4843
567
root -8.99078 18.1719 7.40657 16.4229 -66.4038 -10.6214
lowerback 1.07999 5.9663 0.408111
upperback -3.70483 7.8754 -2.37838
thorax -4.03506 3.85892 -3.01346
lowerneck -6.62139 -15.607 -17.4085
upperneck 1.84078 -20.5523 16.8943
head 5.19589 -9.88025 6.02375
rclavicle -5.9213e-014 -3.26007e-014
rhumerus -25.8076 31.2621 -84.0604
rradius 39.4066
rwrist 7.90918
rhand -12.0054 -16.7411
rfingers 7.12502
rthumb 14.0518 -46.2461
lclavicle -5.9213e-014 -3.26007e-014
lhumerus -52.6141 22.1381 56.3995
lradius 31.922
lwrist -24.5634
lhand -8.44343 17.4241
lfingers 7.12502
lthumb 17.4821 46.6581
rfemur -24.0108 -14.6274 19.1609
rtibia 49.181
rfoot -4.28156 -20.8646
rtoes 10.8201
lfemur -11.6137 -10.1144 -15.3836
ltibia 20.2061
lfoot -10.5486 -3.23358
ltoes -3.79102
568
root -9.10054 18.1698 7.41865 16.0673 -66.554 -10.1993
lowerback 1.14446 5.73305 0.240893
upperback -3.65604 7.56423 -2.22084
thorax -4.07838 3.71132 -2.75607
lowerneck -6.71395 -15.5183 -17.2465
upperneck 1.82172 -20.4221 16.8344
head 5.16022 -9.81366 6.00073
rclavicle 1.09182e-013 -3.97569e-015
rhumerus -26.7108 28.0764 -84.4572
rradius 37.4209
rwrist 6.3421
rhand -12.0975 -17.5725
rfingers 7.12502
rthumb 13.9631 -47.0836
lclavicle 1.09182e-013 -3.97569e-015
lhumerus -52.7642 22.3798 56.2115
lradius 31.5148
lwrist -24.8333
lhand -8.3129 17.3232
lfingers 7.12502
lthumb 17.6077 46.5459
rfemur -24.5118 -14.3935 18.6757
rtibia 48.0188
rfoot -4.54428 -21.0776
rtoes 10.8971
lfemur -11.1454 -10.06 -15.5775
ltibia 20.0648
lfoot -10.7586 -3.12654
ltoes -4.10683
569
root -9.21018 18.1674 7.42955 15.7062 -66.7082 -9.76567
lowerback 1.19997 5.4969 0.0624693
upperback -3.60356 7.24916 -2.05476
thorax -4.11206 3.56262 -2.48115
lowerneck -6.81176 -15.4231 -17.0845
upperneck 1.81167 -20.2823 16.7632
head 5.12546 -9.74228 5.97511
rclavicle 1.54058e-014 1.51076e-014
rhumerus -27.4361 24.6574 -84.4879
rradius 35.506
rwrist 4.65684
rhand -12.2804 -18.6223
rfingers 7.12502
rthumb 13.7868 -48.1455
lclavicle 1.54058e-014 1.51076e-014
lhumerus -52.8939 22.6357 56.0299
lradius 31.1075
lwrist -25.1201
lhand -8.19667 17.2301
lfingers 7.12502
lthumb 17.7196 46.4427
rfemur -24.9878 -14.1427 18.193
rtibia 46.7774
rfoot -4.75355 -21.2585
rtoes 10.935
lfemur -10.6827 -10.0024 -15.7686
ltibia 19.9169
lfoot -10.9566 -3.0241
ltoes -4.43284
570
root -9.31979 18.1646 7.43927 15.3397 -66.8667 -9.32172
lowerback 1.25488 5.25708 -0.115084
upperback -3.5523 6.9291 -1.88935
thorax -4.14301 3.41155 -2.20592
lowerneck -6.91389 -15.3207 -16.9137
upperneck 1.81496 -20.1337 16.682
head 5.09229 -9.66645 5.94592
rclavicle 3.74958e-014 -1.59028e-015
rhumerus -28.0297 21.0104 -84.1777
rradius 33.6819
rwrist 2.89373
rhand -12.5516 -19.8447
rfingers 7.12502
rthumb 13.5254 -49.3854
lclavicle 3.74958e-014 -1.59028e-015
lhumerus -53.0049 22.8993 55.8387
lradius 30.7003
lwrist -25.4263
lhand -8.09382 17.1444
lfingers 7.12502
lthumb 17.8186 46.3481
rfemur -25.4376 -13.8757 17.7137
rtibia 45.4648
rfoot -4.91859 -21.4142
rtoes 10.9359
lfemur -10.2251 -9.94094 -15.9564
ltibia 19.7641
lfoot -11.1433 -2.9271
ltoes -4.77037
571
root -9.42947 18.1616 7.44778 14.9673 -67.0298 -8.86727
lowerback 1.30792 5.01358 -0.292354
upperback -3.50082 6.60406 -1.72418
thorax -4.16906 3.25815 -1.92941
lowerneck -7.02236 -15.2113 -16.7373
upperneck 1.83207 -19.9764 16.5933
head 5.06191 -9.5861 5.91413
rclavicle 6.18717e-014 -3.57812e-014
rhumerus -28.5376 17.1595 -83.5378
rradius 31.9729
rwrist 1.13086
rhand -12.9323 -21.2131
rfingers 7.12502
rthumb 13.1585 -50.7779
lclavicle 6.18717e-014 -3.57812e-014
lhumerus -53.095 23.1699 55.6407
lradius 30.2939
lwrist -25.748
lhand -8.00238 17.0694
lfingers 7.12502
lthumb 17.9065 46.2651
rfemur -25.8611 -13.5921 17.2383
rtibia 44.0889
rfoot -5.04373 -21.5548
rtoes 10.9047
lfemur -9.7719 -9.87547 -16.1406
ltibia 19.6067
lfoot -11.3186 -2.83642
ltoes -5.11801
572
root -9.53922 18.1582 7.45506 14.5916 -67.198 -8.40515
lowerback 1.359 4.7672 -0.468401
upperback -3.44969 6.27515 -1.55952
thorax -4.19052 3.10291 -1.65252
lowerneck -7.13543 -15.0954 -16.5539
upperneck 1.86237 -19.8112 16.4961
head 5.03376 -9.50172 5.87918
rclavicle -1.70209e-014 2.38542e-014
rhumerus -29.0103 13.1357 -82.5821
rradius 30.3959
rwrist -0.543623
rhand -13.425 -22.6762
rfingers 7.12502
rthumb 12.6835 -52.271
lclavicle -1.70209e-014 2.38542e-014
lhumerus -53.1637 23.447 55.4359
lradius 29.8886
lwrist -26.0858
lhand -7.92533 17.0068
lfingers 7.12502
lthumb 17.9807 46.1956
rfemur -26.26 -13.2916 16.769
rtibia 42.6596
rfoot -5.131 -21.6886
rtoes 10.8567
lfemur -9.32364 -9.80624 -16.3196
ltibia 19.4454
lfoot -11.4826 -2.75098
ltoes -5.48216
573
root -9.64916 18.1545 7.46119 14.2059 -67.3713 -7.92949
lowerback 1.40159 4.51908 -0.646177
upperback -3.39373 5.94395 -1.39454
thorax -4.19861 2.94678 -1.37207
lowerneck -7.25303 -14.9747 -16.3665
upperneck 1.89977 -19.64 16.3938
head 5.00701 -9.41419 5.84235
rclavicle 2.31087e-014 -2.38542e-014
rhumerus -29.4902 8.98087 -81.3203
rradius 28.9651
rwrist -2.03983
rhand -14.021 -24.1829
rfingers 7.12502
rthumb 12.1088 -53.8125
lclavicle 2.31087e-014 -2.38542e-014
lhumerus -53.2031 23.7338 55.2302
lradius 29.483
lwrist -26.4388
lhand -7.8614 16.9505
lfingers 7.12502
lthumb 18.0422 46.1337
rfemur -26.6338 -12.9784 16.3034
rtibia 41.187
rfoot -5.18058 -21.8192
rtoes 10.7833
lfemur -8.87868 -9.73425 -16.497
ltibia 19.281
lfoot -11.6359 -2.67168
ltoes -5.85679
574
root -9.75928 18.1506 7.4661 13.814 -67.5504 -7.44415
lowerback 1.44401 4.27 -0.821443
upperback -3.3384 5.6114 -1.23196
thorax -4.20294 2.78988 -1.09441
lowerneck -7.37344 -14.8493 -16.175
upperneck 1.94853 -19.4638 16.2871
head 4.98302 -9.32407 5.80366
rclavicle 1.78658e-014 2.62396e-014
rhumerus -30.0324 4.74462 -79.7753
rradius 27.6889
rwrist -3.27044
rhand -14.7011 -25.673
rfingers 7.12502
rthumb 11.4531 -55.3401
lclavicle 1.78658e-014 2.62396e-014
lhumerus -53.2171 24.0236 55.019
lradius 29.0775
lwrist -26.8074
lhand -7.81269 16.9036
lfingers 7.12502
lthumb 18.0891 46.0824
rfemur -26.9843 -12.6496 15.8439
rtibia 39.6815
rfoot -5.19785 -21.952
rtoes 10.6894
lfemur -8.43791 -9.6589 -16.6701
ltibia 19.1142
lfoot -11.7782 -2.59809
ltoes -6.245
575
root -9.86964 18.1463 7.46982 13.415 -67.7354 -6.94913
lowerback 1.48864 4.0203 -0.993315
upperback -3.28512 5.27787 -1.07258
thorax -4.20625 2.63231 -0.821196
lowerneck -7.49503 -14.7195 -15.9796
upperneck 2.00988 -19.2835 16.176
head 4.96202 -9.23176 5.76305
rclavicle 7.59357e-014 -1.03368e-014
rhumerus -30.6809 0.487045 -77.9658
rradius 26.573
rwrist -4.17328
rhand -15.4275 -27.1027
rfingers 7.12502
rthumb 10.7524 -56.8075
lclavicle 7.59357e-014 -1.03368e-014
lhumerus -53.2067 24.3108 54.8025
lradius 28.6736
lwrist -27.1852
lhand -7.78163 16.8703
lfingers 7.12502
lthumb 18.1189 46.0464
rfemur -27.3119 -12.3064 15.3911
rtibia 38.1533
rfoot -5.18716 -22.0902
rtoes 10.5966
lfemur -8.00067 -9.58085 -16.839
ltibia 18.9462
lfoot -11.9103 -2.53059
ltoes -6.64958
